<?xml version="1.0" encoding="utf-8"?>
<!-- Generator: Adobe Illustrator 25.3.1, SVG Export Plug-In . SVG Version: 6.00 Build 0)  -->
<svg version="1.1" id="Layer_1" xmlns="http://www.w3.org/2000/svg" xmlns:xlink="http://www.w3.org/1999/xlink" x="0px" y="0px"
	 viewBox="0 0 256 256" style="enable-background:new 0 0 256 256;" xml:space="preserve">
<style type="text/css">
	.st0{fill:#4F598E;}
</style>
<g transform="translate(0.000000,256.000000) scale(0.100000,-0.100000)">
	<path class="st0" d="M1085,2544c-44-7-100-19-125-27l-45-13l-3-492l-2-492H615H321l16,53c36,124,119,268,212,369l51,56l-2,183
		l-3,182l-81-61c-255-192-427-469-491-790c-23-118-23-346,0-464c64-321,236-598,491-790l81-61l3,182l2,183l-51,56
		c-64,70-131,172-171,260c-37,81-78,239-78,298v44h305h305V920V620h150h150v970v970l-22-1C1175,2558,1129,2552,1085,2544z"/>
	<path class="st0" d="M1352,1593l3-968l148-3l147-3v301v300l143-1h142l123-155c68-85,125-160,128-167c2-7-18-52-46-100l-50-87V505
		c0-113,4-205,9-205c14,0,175,172,223,240c25,36,62,94,81,130c41,74,106,238,109,273c1,15-29,61-95,143c-53,67-97,124-97,128
		c0,3,55,6,121,6h122l-6,108c-11,214-75,433-176,601c-167,278-437,489-736,576c-77,22-245,55-283,55C1352,2560,1350,2363,1352,1593z
		 M1723,2164c232-117,429-350,501-594l15-50h-295h-294v335c0,224,3,335,10,335C1666,2190,1694,2178,1723,2164z"/>
	<path class="st0" d="M910,208V53l73-16c70-17,190-37,215-37c9,0,12,36,12,145c0,164,10,147-94,160c-42,6-142,33-192,52
		C912,361,910,335,910,208z"/>
	<path class="st0" d="M1580,339c-30-11-84-24-120-30c-124-21-110,1-110-164c0-109,3-145,13-145c24,0,144,20,215,37l72,16v153
		c0,85-3,154-7,153C1638,359,1610,350,1580,339z"/>
</g>
</svg>
